<svg width="75" height="80" viewBox="0 0 75 80" fill="none" xmlns="http://www.w3.org/2000/svg">
<path d="M45.2834 19.3914C47.441 17.2881 48.6691 14.4093 48.6953 11.3958C48.7209 8.38272 47.5416 5.48411 45.4195 3.34388C43.2982 1.20365 40.4093 0 37.3958 0C34.3823 0 31.4934 1.20368 29.372 3.34388C27.25 5.48411 26.0707 8.38272 26.0962 11.3958C26.1225 14.4093 27.3505 17.2881 29.5082 19.3914C27.0853 21.3761 25.6793 24.3423 25.6767 27.4744V34.4668C25.6767 35.2085 25.9714 35.9202 26.4958 36.4447C27.0202 36.9691 27.732 37.2638 28.4737 37.2638H46.3183C47.0599 37.2638 47.7717 36.9691 48.2961 36.4447C48.8205 35.9202 49.1152 35.2085 49.1152 34.4668V27.4744C49.1127 24.3422 47.7064 21.3761 45.2834 19.3914ZM37.3956 5.61629C38.909 5.61629 40.3599 6.21751 41.43 7.28759C42.5001 8.35768 43.1013 9.80853 43.1013 11.3219C43.1013 12.8353 42.5001 14.2862 41.43 15.3563C40.3599 16.4263 38.909 17.0276 37.3956 17.0276C35.8822 17.0276 34.4313 16.4263 33.3613 15.3563C32.2912 14.2862 31.69 12.8353 31.69 11.3219C31.69 9.80853 32.2912 8.35763 33.3613 7.28759C34.4314 6.21751 35.8822 5.61629 37.3956 5.61629ZM43.5208 31.5992H31.2705V27.4038C31.2705 26.1171 31.7818 24.8822 32.6914 23.9725C33.6017 23.0622 34.836 22.5509 36.1234 22.5509H38.6687C39.9561 22.5509 41.1897 23.0622 42.1001 23.9725C43.0097 24.8821 43.521 26.117 43.521 27.4038L43.5208 31.5992ZM19.6348 62.1276C21.7875 60.0217 23.0105 57.1442 23.033 54.1331C23.0549 51.122 21.8743 48.2264 19.7529 46.0894C17.6315 43.9523 14.7446 42.7498 11.7335 42.7498C8.72235 42.7498 5.83557 43.9522 3.71404 46.0894C1.59267 48.2264 0.412032 51.122 0.433928 54.1331C0.456403 57.1442 1.67945 60.0217 3.83215 62.1276C1.40599 64.1098 -0.00111812 67.0779 6.66647e-07 70.2106V77.203C6.66647e-07 77.9454 0.294688 78.6565 0.819733 79.1809C1.34415 79.7053 2.05527 80 2.79694 80H20.6144C21.356 80 22.0678 79.7053 22.5922 79.1809C23.1166 78.6565 23.4113 77.9454 23.4113 77.203V70.2106C23.4263 67.0872 22.0403 64.121 19.6348 62.1276ZM11.7471 48.3806C13.2604 48.3806 14.712 48.9819 15.782 50.0519C16.8521 51.122 17.4533 52.5729 17.4533 54.0863C17.4533 55.5997 16.8521 57.0512 15.782 58.1212C14.7119 59.1913 13.2605 59.7919 11.7471 59.7919C10.2343 59.7919 8.78277 59.1913 7.71273 58.1212C6.64265 57.0512 6.04143 55.5997 6.04143 54.0863C6.04143 52.5729 6.64265 51.122 7.71273 50.0519C8.78281 48.9819 10.2343 48.3806 11.7471 48.3806ZM17.8168 74.3636H5.60814V70.1681C5.61189 68.8827 6.12446 67.6502 7.03347 66.7413C7.94248 65.8317 9.17482 65.3191 10.4609 65.3154H13.0201C14.3037 65.3341 15.5274 65.8585 16.4258 66.7756C17.3242 67.6921 17.8243 68.9264 17.8168 70.21L17.8168 74.3636ZM70.959 62.127C73.1203 60.0211 74.3516 57.1393 74.3778 54.1219C74.404 51.1039 73.224 48.2008 71.0994 46.0582C68.9749 43.9149 66.0824 42.7094 63.0645 42.7094C60.0472 42.7094 57.1541 43.9149 55.0296 46.0582C52.9056 48.2008 51.725 51.1039 51.7512 54.1219C51.7781 57.1393 53.0086 60.0211 55.1701 62.127C52.7596 64.1173 51.3686 67.0841 51.3804 70.21V77.2024C51.3804 77.9447 51.6751 78.6558 52.1995 79.1803C52.724 79.7047 53.4357 79.9994 54.1774 79.9994H71.9804C72.7221 79.9994 73.4338 79.7047 73.9583 79.1803C74.4827 78.6558 74.7774 77.9447 74.7774 77.2024V70.21C74.7824 67.0797 73.3801 64.1123 70.959 62.127ZM63.0439 48.38C64.5566 48.38 66.0082 48.9812 67.0782 50.0513C68.1483 51.1214 68.7495 52.5722 68.7495 54.0856C68.7495 55.599 68.1483 57.0506 67.0782 58.1206C66.0081 59.1907 64.5567 59.7913 63.0439 59.7913C61.5305 59.7913 60.079 59.1907 59.0089 58.1206C57.9388 57.0505 57.3376 55.599 57.3376 54.0856C57.3376 52.5722 57.9388 51.1213 59.0089 50.0513C60.079 48.9812 61.5305 48.38 63.0439 48.38ZM69.1835 74.3917H56.9742V70.1963C56.9779 68.9102 57.4905 67.6784 58.3995 66.7688C59.3091 65.8598 60.5409 65.3472 61.827 65.3435H64.3861C65.6722 65.3472 66.904 65.8598 67.8136 66.7688C68.7226 67.6784 69.2352 68.9101 69.2389 70.1963L69.1835 74.3917ZM47.9122 59.2181C47.5407 59.8631 46.9276 60.3332 46.2085 60.5248C45.4893 60.7165 44.7232 60.6135 44.0802 60.2389L37.3956 56.365L30.6829 60.2245C30.2565 60.4661 29.7746 60.5922 29.2845 60.5885C28.4591 60.5872 27.6763 60.2214 27.1461 59.5883C26.6155 58.9559 26.392 58.1212 26.5343 57.3082C26.6773 56.4948 27.1718 55.7862 27.886 55.3723L34.5987 51.5265V43.793C34.5987 42.7935 35.1318 41.8702 35.9971 41.3707C36.8625 40.8712 37.9288 40.8712 38.7941 41.3707C39.6594 41.8702 40.1926 42.7935 40.1926 43.793V51.5265L46.8915 55.3723C47.5402 55.7437 48.0134 56.3593 48.2051 57.0816C48.3968 57.8046 48.2912 58.5739 47.9122 59.2181Z" fill="#121E2C"/>
</svg>
