<svg width="69" height="80" viewBox="0 0 69 80" fill="none" xmlns="http://www.w3.org/2000/svg">
<path fill-rule="evenodd" clip-rule="evenodd" d="M20.4102 42.8628C15.9844 40.5476 13.5905 36.3582 13.8268 31.2395L13.8267 31.2385C13.937 29.0178 14.567 26.5608 15.5907 24.8283C12.3777 20.7656 9.08608 13.4105 13.7164 6.81144C13.7182 6.80898 13.7212 6.80474 13.7254 6.79878C13.9083 6.53773 16.4088 2.97029 21.1975 0.291122C22.9299 -0.685321 24.9774 0.952643 24.4104 2.8583C23.9694 4.4175 23.4339 8.08712 24.6781 9.42585C25.3869 10.1818 26.8988 10.0873 28.08 9.85109C29.4653 9.39434 38.9315 6.40193 44.9478 10.1031C47.0426 11.3787 48.4757 13.2689 49.2317 15.7257C51.1691 15.6154 53.5472 16.0093 55.3427 17.7417C58.4611 20.7502 58.7761 26.3729 56.3034 34.9407C55.2797 38.516 52.7598 41.4139 49.3579 43.0676C48.6019 45.052 47.5467 46.9261 46.145 48.5484C43.184 52.0291 39.1993 53.9347 34.9313 53.9347C30.6632 53.9347 26.6785 52.0132 23.7018 48.5484C22.2686 46.879 21.1662 44.9418 20.4102 42.8628ZM34.9311 49.4779C37.8763 49.4779 40.6641 48.1234 42.7745 45.6507L42.7746 45.6503C46.4599 41.3667 47.2318 34.6259 44.7275 29.334C42.4754 28.3733 40.3648 27.1133 38.4119 25.5856C34.3168 29.8223 29.214 32.862 23.7646 34.2794C23.3078 38.4846 24.5049 42.6583 27.0721 45.6507C29.1983 48.1234 31.9859 49.4779 34.9311 49.4779ZM17.4072 9.30394C17.3948 9.32094 17.3878 9.33042 17.3864 9.33183L17.3862 9.33191C13.0214 15.5369 19.8617 22.9754 20.3513 23.5078C20.3687 23.5268 20.3781 23.537 20.3786 23.5381C21.4023 24.5933 20.9928 26.3573 19.5911 26.8455C19.0241 27.6173 17.8429 30.5625 18.4099 33.6337C18.5674 34.4684 18.8351 35.2243 19.2289 35.9173C19.2289 34.6417 19.3549 33.3501 19.6069 32.0586C19.7801 31.1766 20.4573 30.4836 21.3393 30.3104C27.0724 29.1449 32.4587 25.8689 36.4907 21.1126C37.3411 20.1676 38.6956 20.0416 39.6721 20.8921C41.9087 22.908 44.4286 24.483 47.1375 25.5697C47.6257 25.7587 48.0195 26.1209 48.2715 26.5777C49.9409 29.6488 50.7126 33.0823 50.6339 36.4842C51.2639 35.6652 51.7364 34.7359 52.0356 33.728C54.6816 24.5617 53.0751 21.7425 52.2561 20.955C50.8544 19.6005 48.24 20.388 48.2085 20.4038C46.8856 20.8447 45.4838 19.9627 45.3105 18.5767C45.027 16.356 44.145 14.8284 42.6331 13.8992C38.2547 11.1115 29.1357 14.1827 29.1357 14.1827C24.9147 15.0805 22.6153 13.7417 21.4183 12.4502C20.0323 10.9541 19.5599 8.92231 19.4811 7.01665C18.2335 8.1782 17.5343 9.13087 17.4072 9.30394ZM12.584 60.4232C26.8052 55.9818 41.8463 55.9818 56.084 60.4232H56.0843C63.6126 62.7703 68.6683 69.7469 68.6525 77.7791C68.6525 79.0076 67.6602 79.9999 66.4318 79.9999H2.22072C0.992224 79.9999 0 79.0076 0 77.7791C0 69.747 5.05573 62.7699 12.584 60.4232ZM34.3337 68.5973C38.2712 68.5973 41.5471 65.7466 42.2086 61.9982H42.2092C36.9795 61.384 31.6877 61.384 26.4588 61.9982C27.1204 65.7466 30.3963 68.5973 34.3337 68.5973ZM13.9063 64.6757C9.03969 66.1877 5.44877 70.5031 4.62978 75.5587H64.0374C63.2183 70.5031 59.6275 66.2034 54.7608 64.6757C52.0677 63.8252 49.343 63.1637 46.6026 62.6598C45.6103 68.5344 40.4916 73.0388 34.3336 73.0388C28.1756 73.0388 23.0569 68.5501 22.0646 62.6598C19.3242 63.1637 16.5995 63.841 13.9063 64.6757Z" fill="#121E2C"/>
</svg>
