<svg width="74" height="82" viewBox="0 0 74 82" fill="none" xmlns="http://www.w3.org/2000/svg">
<path fill-rule="evenodd" clip-rule="evenodd" d="M67.2498 22.2499H67.2503V15.9999C67.2503 10.6411 64.3915 5.68907 59.7503 3.00936C55.1092 0.330214 49.3915 0.330214 44.7503 3.00936C40.1092 5.68907 37.2503 10.6411 37.2503 15.9999V22.2499H37.2504V22.2501C37.2437 23.5563 37.6131 24.8377 38.314 25.9398C38.6862 26.6758 39.2465 27.3003 39.9373 27.7501C40.4507 28.0841 41.0229 28.3125 41.6208 28.4251C42.1734 30.0196 43.0825 31.4849 44.2983 32.7009C45.4954 33.8978 46.9342 34.7976 48.5001 35.3525V37.2493H39.7503V39.7493H48.9549C49.4191 40.3749 50.3566 41.0001 52.2501 41.0001C53.9153 41.0001 54.8411 40.5165 55.3559 39.9744L68.2792 43.6663C69.0616 43.8923 69.7497 44.366 70.2402 45.0162C70.7307 45.6663 70.9975 46.4581 71.0002 47.2723V63.4998H67.2504V57.2496H67.2503V57.2494H64.7503V78.4996H41.0011V63.5004H38.5011V78.4996H38.5004V78.5004H34.751C34.7934 76.5575 34.3162 74.639 33.3699 72.942C32.5947 71.5928 32.2075 70.0559 32.251 68.5006C32.1427 67.1585 32.708 65.8499 33.7599 65.0095C34.962 63.974 35.7313 62.5443 35.9478 61.0007H42.251L42.2509 61.0008C42.6365 61.0008 43.0003 60.8227 43.2375 60.5181C43.4741 60.2139 43.5573 59.8172 43.4624 59.4433H43.4618L41.6281 52.1057C41.1148 50.0297 39.5713 48.3629 37.5411 47.6921L26.001 43.8463V41.6033C27.5665 41.0483 29.005 40.1487 30.202 38.952C31.4179 37.7358 32.3272 36.2702 32.8798 34.6754C33.4779 34.5629 34.0503 34.3344 34.5639 34.0003C34.6275 33.9589 34.6899 33.916 34.7513 33.8717V44.7504H37.2513V25.4932C37.2513 16.1254 30.5224 8.50035 22.2513 8.50035C13.9801 8.50035 7.25127 16.1255 7.25127 25.4932V28.5352V42.9908C5.35924 44.9338 4.75115 47.8651 4.75115 49.7499C4.75115 50.7442 5.14637 51.6985 5.84937 52.4016C6.55237 53.1048 7.50667 53.4999 8.50108 53.4999H10.4498L10.4497 53.4999C11.2366 53.4999 12.0039 53.2522 12.6423 52.7923C13.2807 52.332 13.7583 51.683 14.0072 50.9363L14.0987 50.6612C15.0334 51.1467 16.154 51.1088 17.0542 50.5613C17.9537 50.0133 18.5028 49.0356 18.5012 47.9826V47.2499C18.5649 45.5735 17.9264 43.9469 16.7406 42.7605C15.5542 41.5747 13.9274 40.9363 12.2512 40.9999C11.3122 40.9999 10.4826 41.1433 9.75127 41.3967V33.872C9.81247 33.9162 9.87481 33.959 9.93826 34.0003C10.4515 34.3342 11.0237 34.5626 11.6214 34.6753C12.174 36.2701 13.0833 37.7356 14.2992 38.9519C15.4964 40.1488 16.9352 41.0486 18.501 41.6035V44.7503C18.501 44.853 18.5434 47.2503 22.251 47.2503C23.881 47.2503 24.8026 46.787 25.3236 46.2589L36.751 50.0683C37.9692 50.4706 38.8949 51.4706 39.2035 52.7156L40.65 58.5007H35.8435C35.5167 56.9351 34.7157 55.4961 33.5344 54.3879L33.1594 53.9454L31.247 55.5581L31.6521 56.0268C32.7263 56.9827 33.3887 58.317 33.5008 59.7505C33.6091 61.0927 33.0439 62.4013 31.992 63.2417C30.4701 64.5524 29.642 66.495 29.7508 68.5005C29.7084 70.4435 30.1856 72.3621 31.132 74.0591C31.9071 75.4084 32.2943 76.9452 32.2508 78.5004H12.2506V78.5001C12.2093 76.9442 12.5983 75.4074 13.3756 74.0587C14.3204 72.3611 14.7947 70.4421 14.7506 68.5001C14.8594 66.4945 14.0312 64.5521 12.5095 63.2412C11.4577 62.4008 10.8924 61.0922 11.0006 59.7501C11.1116 58.3177 11.7724 56.9829 12.8444 56.0264L13.2506 55.5565L11.3382 53.9438L10.9632 54.3874C9.78329 55.4961 8.98323 56.9353 8.65731 58.5007H3.8519L5.29718 52.7155L5.33457 52.5794L2.92214 51.922L1.03814 59.4483C0.944959 59.8216 1.02923 60.2167 1.26583 60.5203C1.50299 60.8233 1.86627 61.0007 2.25076 61.0007H3.50109V79.7504C3.50109 80.4407 4.06081 81.0004 4.75109 81.0004H39.7511C39.7662 81.0004 39.7812 81.0001 39.7963 80.9996H66.0004L66.0187 80.9994H72.2502C72.5817 80.9994 72.8998 80.8677 73.1342 80.6333C73.3685 80.399 73.5002 80.0809 73.5002 79.7494V47.2723C73.4958 45.9146 73.051 44.5948 72.2335 43.5111C71.4153 42.4274 70.2686 41.6378 68.9639 41.2611H68.9645L56.0001 37.5575V35.3523C57.5655 34.7973 59.004 33.8977 60.2011 32.701C61.4168 31.485 62.3259 30.0198 62.8786 28.4253C63.4767 28.3127 64.0493 28.0842 64.563 27.7501C65.2538 27.3003 65.814 26.6758 66.1862 25.9398C66.8871 24.8376 67.2565 23.5564 67.2498 22.2501V22.2499ZM67.2504 65.9998H71.0002V78.4994H67.2504V65.9998ZM51.0001 38.2802V35.9286C51.413 35.9751 51.8301 35.999 52.2497 35.9995L52.2496 35.9996C52.6695 35.9991 53.0869 35.9752 53.5001 35.9285V38.2802C52.6926 38.5732 51.8075 38.5732 51.0001 38.2802ZM64.7503 18.7147V15.9999C64.7503 11.5339 62.368 7.40736 58.5003 5.17464C54.6326 2.94193 49.868 2.94193 46.0003 5.17464C42.1326 7.40736 39.7503 11.5341 39.7503 15.9999V18.7146C40.148 18.5741 40.5701 18.5002 40.9997 18.5001V17.2495C40.9997 16.918 41.1314 16.5999 41.3658 16.3656L46.3658 11.3656C46.8541 10.8778 47.6453 10.8778 48.1336 11.3656C48.1772 11.408 52.9462 15.9996 62.2496 15.9996C62.5811 15.9996 62.8992 16.1313 63.1336 16.3656C63.3679 16.6 63.4996 16.9181 63.4996 17.2496V18.5001H63.4999C63.9299 18.5001 64.3524 18.574 64.7503 18.7147ZM39.7503 22.2499V22.2501C39.7442 23.0777 39.9758 23.8901 40.4177 24.59C40.582 24.8465 40.7844 25.1224 41.017 25.3615C41.0057 25.1582 40.9999 24.9542 40.9997 24.7495V21.0001C40.3098 21.0005 39.7504 21.5599 39.7503 22.2499ZM63.4996 24.7496V21.0001H63.4999C63.8314 21.0001 64.1495 21.1318 64.3838 21.3662C64.6182 21.6006 64.7499 21.9187 64.7499 22.2501C64.756 23.0777 64.5245 23.8902 64.0825 24.59C63.918 24.8468 63.7153 25.1231 63.4823 25.3625C63.4936 25.1589 63.4994 24.9545 63.4996 24.7496ZM43.4997 17.7666V24.7494C43.4997 27.8755 45.1677 30.7639 47.8747 32.3269C50.5817 33.8899 53.9177 33.8899 56.6247 32.3269C59.3317 30.7639 60.9997 27.8755 60.9997 24.7494V18.4731C56.084 18.4016 51.3094 16.8214 47.3223 13.9458L43.4997 17.7666ZM6.00109 61.0007H8.55391C8.77053 62.5441 9.53978 63.9736 10.7418 65.009C11.7936 65.8494 12.3589 67.1581 12.2506 68.5002C12.2941 70.0554 11.9069 71.5923 11.1318 72.9416C10.1853 74.6386 9.7082 76.557 9.75061 78.5002V78.5004H6.00109V61.0007ZM34.743 24.962C34.5011 17.2145 28.9902 11.0004 22.2513 11.0004C15.5123 11.0004 10.0015 17.2143 9.75955 24.9619C10.1548 24.8232 10.574 24.7504 11.0007 24.7503V23.5005C11.0007 23.169 11.1324 22.8509 11.3667 22.6166L16.3667 17.6166C16.855 17.1288 17.6463 17.1288 18.1346 17.6166C18.1781 17.659 22.9472 22.2506 32.2506 22.2506C32.5821 22.2506 32.9001 22.3823 33.1345 22.6166C33.3689 22.851 33.5006 23.1691 33.5006 23.5006V24.7503H33.5009C33.9279 24.7503 34.3475 24.8232 34.743 24.962ZM9.75127 28.5619V28.5029L9.75129 28.5003C9.75129 27.8103 10.3107 27.2507 11.0007 27.2503V31.0005C11.0009 31.2049 11.0067 31.4087 11.0179 31.6117C10.7854 31.3725 10.583 31.0967 10.4187 30.8402C9.9877 30.1577 9.75678 29.3682 9.75127 28.5619ZM21.001 42.1796V44.5304C21.3916 44.7101 21.8224 44.786 22.251 44.7503C22.6796 44.786 23.1104 44.7101 23.501 44.5304V42.1795C23.0878 42.2262 22.6704 42.2501 22.2506 42.2506L22.2507 42.2505C21.8311 42.25 21.414 42.2261 21.001 42.1796ZM33.5006 31.0006V27.2503H33.5009C33.8323 27.2503 34.1504 27.382 34.3848 27.6164C34.6192 27.8508 34.7509 28.1689 34.7509 28.5003C34.757 29.3279 34.5254 30.1404 34.0835 30.8402C33.919 31.097 33.7163 31.3733 33.4833 31.6127C33.4946 31.4093 33.5004 31.2052 33.5006 31.0006ZM13.5007 24.0176V31.0003C13.5007 34.1265 15.1687 37.0149 17.8757 38.5779C20.5827 40.1409 23.9187 40.1409 26.6257 38.5779C29.3327 37.0149 31.0007 34.1265 31.0007 31.0003V24.7241C26.0849 24.6526 21.3104 23.0723 17.3232 20.1968L13.5007 24.0176ZM12.2511 43.4999C7.30851 43.4999 7.25108 49.4999 7.25108 49.7499C7.25108 50.0813 7.38278 50.3994 7.61715 50.6338C7.85153 50.8682 8.16961 50.9999 8.50108 50.9999H10.4498C10.9883 50.9999 11.466 50.6555 11.6362 50.1449L12.3148 48.1048C12.452 47.6935 12.7919 47.3827 13.2138 47.2834C13.6351 47.1835 14.0787 47.3096 14.3851 47.616L15.1178 48.3487H15.1172C15.2712 48.4792 15.485 48.5127 15.6713 48.4357C15.8577 48.3581 15.985 48.1835 16.0011 47.9826V47.2499C16.0553 46.2398 15.6775 45.2543 14.9621 44.5389C14.2467 43.8235 13.2612 43.4457 12.2511 43.4998V43.4999Z" fill="#121E2C"/>
<path d="M67.2503 22.2499V22.7499H67.7503V22.2499H67.2503ZM67.2498 22.2499V21.7499H66.7498V22.2499H67.2498ZM59.7503 3.00936L60.0003 2.57635L60.0003 2.57633L59.7503 3.00936ZM44.7503 3.00936L44.5004 2.57633L44.5003 2.57635L44.7503 3.00936ZM37.2503 22.2499H36.7503V22.7499H37.2503V22.2499ZM37.2504 22.2499H37.7504V21.7499H37.2504V22.2499ZM37.2504 22.2501L37.7504 22.2526V22.2501H37.2504ZM38.314 25.9398L38.7602 25.7142L38.7491 25.6922L38.7359 25.6715L38.314 25.9398ZM39.9373 27.7501L39.6645 28.1691L39.6646 28.1692L39.9373 27.7501ZM41.6208 28.4251L42.0932 28.2614L41.9982 27.9874L41.7133 27.9338L41.6208 28.4251ZM44.2983 32.7009L43.9447 33.0544L43.9448 33.0545L44.2983 32.7009ZM48.5001 35.3525H49.0001V34.9993L48.6671 34.8813L48.5001 35.3525ZM48.5001 37.2493V37.7493H49.0001V37.2493H48.5001ZM39.7503 37.2493V36.7493H39.2503V37.2493H39.7503ZM39.7503 39.7493H39.2503V40.2493H39.7503V39.7493ZM48.9549 39.7493L49.3565 39.4514L49.2065 39.2493H48.9549V39.7493ZM55.3559 39.9744L55.4932 39.4937L55.2019 39.4104L54.9933 39.6301L55.3559 39.9744ZM68.2792 43.6663L68.418 43.1859L68.4165 43.1855L68.2792 43.6663ZM70.2402 45.0162L70.6393 44.715L70.6393 44.715L70.2402 45.0162ZM71.0002 47.2723H71.5002V47.2706L71.0002 47.2723ZM71.0002 63.4998V63.9998H71.5002V63.4998H71.0002ZM67.2504 63.4998H66.7504V63.9998H67.2504V63.4998ZM67.2504 57.2496H67.7504V56.7496H67.2504V57.2496ZM67.2503 57.2496H66.7503V57.7496H67.2503V57.2496ZM67.2503 57.2494H67.7503V56.7494H67.2503V57.2494ZM64.7502 57.2494V56.7494H64.2502V57.2494H64.7502ZM64.7502 78.4996V78.9996H65.2502V78.4996H64.7502ZM41.0011 78.4996H40.5011V78.9996H41.0011V78.4996ZM41.0011 63.5004H41.5011V63.0004H41.0011V63.5004ZM38.5011 63.5004V63.0004H38.0011V63.5004H38.5011ZM38.5011 78.4996V78.9996H39.0011V78.4996H38.5011ZM38.5004 78.4996V77.9996H38.0004V78.4996H38.5004ZM38.5004 78.5004V79.0004H39.0004V78.5004H38.5004ZM34.751 78.5004L34.2511 78.4895L34.24 79.0004H34.751V78.5004ZM33.3699 72.942L33.8066 72.6985L33.8034 72.693L33.3699 72.942ZM32.251 68.5006L32.7508 68.5146L32.7516 68.4875L32.7494 68.4604L32.251 68.5006ZM33.7599 65.0095L34.0719 65.4001L34.0792 65.3943L34.0862 65.3883L33.7599 65.0095ZM35.9478 61.0007V60.5007H35.513L35.4527 60.9313L35.9478 61.0007ZM42.251 61.0007L42.6045 61.3543L43.4581 60.5007H42.251V61.0007ZM42.2509 61.0008L41.8974 60.6472L41.0438 61.5008H42.2509V61.0008ZM43.2375 60.5181L43.6321 60.8252L43.6322 60.8251L43.2375 60.5181ZM43.4624 59.4433L43.947 59.3203L43.8514 58.9433H43.4624V59.4433ZM43.4618 59.4433L42.9768 59.5645L43.0714 59.9433H43.4618V59.4433ZM41.6281 52.1057L41.1427 52.2257L41.143 52.2269L41.6281 52.1057ZM37.5411 47.6921L37.383 48.1665L37.3843 48.1669L37.5411 47.6921ZM26.001 43.8463H25.501V44.2067L25.8429 44.3206L26.001 43.8463ZM26.001 41.6033L25.8339 41.132L25.501 41.25V41.6033H26.001ZM30.202 38.952L30.5555 39.3056L30.5556 39.3055L30.202 38.952ZM32.8798 34.6754L32.7873 34.1841L32.5023 34.2377L32.4074 34.5117L32.8798 34.6754ZM34.5639 34.0003L34.8365 34.4194L34.8367 34.4193L34.5639 34.0003ZM34.7513 33.8717H35.2513V32.8936L34.4585 33.4664L34.7513 33.8717ZM34.7513 44.7504H34.2513V45.2504H34.7513V44.7504ZM37.2513 44.7504V45.2504H37.7513V44.7504H37.2513ZM7.25127 42.9908L7.60949 43.3396L7.75127 43.194V42.9908H7.25127ZM10.4498 53.4999L10.7126 53.9252L12.2102 52.9999H10.4498V53.4999ZM10.4497 53.4999L10.1869 53.0746L8.68925 53.9999H10.4497V53.4999ZM12.6423 52.7923L12.9345 53.1981L12.9347 53.1979L12.6423 52.7923ZM14.0072 50.9363L14.4816 51.0945L14.4816 51.0942L14.0072 50.9363ZM14.0987 50.6612L14.3292 50.2175L13.8092 49.9474L13.6243 50.5034L14.0987 50.6612ZM17.0542 50.5613L17.314 50.9885L17.3143 50.9883L17.0542 50.5613ZM18.5012 47.9826H18.0012V47.9834L18.5012 47.9826ZM18.5012 47.2499L18.0015 47.2309L18.0012 47.2404V47.2499H18.5012ZM16.7406 42.7605L17.0942 42.407L17.094 42.4068L16.7406 42.7605ZM12.2512 40.9999V41.4999H12.2606L12.2701 41.4996L12.2512 40.9999ZM9.75127 41.3967H9.25127V42.099L9.91495 41.8691L9.75127 41.3967ZM9.75127 33.872L10.044 33.4666L9.25127 32.894V33.872H9.75127ZM9.93826 34.0003L9.66544 34.4193L9.66558 34.4194L9.93826 34.0003ZM11.6214 34.6753L12.0939 34.5116L11.9989 34.2376L11.714 34.1839L11.6214 34.6753ZM14.2992 38.9519L13.9456 39.3054L13.9457 39.3055L14.2992 38.9519ZM18.501 41.6035H19.001V41.2503L18.668 41.1323L18.501 41.6035ZM25.3236 46.2589L25.4817 45.7846L25.1864 45.6861L24.9677 45.9077L25.3236 46.2589ZM36.751 50.0683L36.5928 50.5426L36.5942 50.5431L36.751 50.0683ZM39.2035 52.7156L38.7182 52.8359L38.7185 52.8368L39.2035 52.7156ZM40.65 58.5007V59.0007H41.2904L41.135 58.3794L40.65 58.5007ZM35.8435 58.5007L35.3541 58.6029L35.4372 59.0007H35.8435V58.5007ZM33.5344 54.3879L33.153 54.7111L33.1715 54.733L33.1923 54.7525L33.5344 54.3879ZM33.1594 53.9454L33.5409 53.6221L33.2184 53.2416L32.8371 53.5631L33.1594 53.9454ZM31.247 55.5581L30.9247 55.1758L30.5378 55.5021L30.8687 55.885L31.247 55.5581ZM31.6521 56.0268L31.2738 56.3538L31.2953 56.3786L31.3197 56.4003L31.6521 56.0268ZM33.5008 59.7505L33.0024 59.7895L33.0025 59.7908L33.5008 59.7505ZM31.992 63.2417L31.6799 62.851L31.6727 62.8568L31.6657 62.8628L31.992 63.2417ZM29.7508 68.5005L30.2507 68.5115L30.2511 68.4924L30.2501 68.4734L29.7508 68.5005ZM31.132 74.0591L30.6953 74.3027L30.6984 74.3082L31.132 74.0591ZM32.2508 78.5004V79.0004H32.7371L32.7506 78.5144L32.2508 78.5004ZM12.2506 78.5004H11.7506V79.0004H12.2506V78.5004ZM12.2506 78.5001H12.7508L12.7505 78.4868L12.2506 78.5001ZM13.3756 74.0587L13.8089 74.3084L13.8125 74.3018L13.3756 74.0587ZM14.7506 68.5001L14.2514 68.473L14.2503 68.4922L14.2508 68.5114L14.7506 68.5001ZM12.5095 63.2412L12.8358 62.8624L12.8288 62.8564L12.8216 62.8506L12.5095 63.2412ZM11.0006 59.7501L11.499 59.7903L11.4991 59.7887L11.0006 59.7501ZM12.8444 56.0264L13.1772 56.3995L13.2014 56.3779L13.2226 56.3534L12.8444 56.0264ZM13.2506 55.5565L13.6288 55.8835L13.9599 55.5006L13.5729 55.1743L13.2506 55.5565ZM11.3382 53.9438L11.6605 53.5616L11.2787 53.2396L10.9563 53.621L11.3382 53.9438ZM10.9632 54.3874L11.3056 54.7518L11.3265 54.7322L11.345 54.7102L10.9632 54.3874ZM8.65731 58.5007V59.0007H9.06393L9.14681 58.6026L8.65731 58.5007ZM3.8519 58.5007L3.36681 58.3795L3.21162 59.0007H3.8519V58.5007ZM5.29718 52.7155L4.8149 52.5831L4.81209 52.5943L5.29718 52.7155ZM5.33457 52.5794L5.81672 52.7118L5.94939 52.2287L5.46603 52.097L5.33457 52.5794ZM2.92214 51.922L3.0536 51.4396L2.56107 51.3054L2.43711 51.8006L2.92214 51.922ZM1.03814 59.4483L0.55311 59.3269L0.553029 59.3272L1.03814 59.4483ZM1.26583 60.5203L0.871462 60.8276L0.872086 60.8284L1.26583 60.5203ZM3.50109 61.0007H4.00109V60.5007H3.50109V61.0007ZM39.7963 80.9996V80.4996H39.7873L39.7783 80.4999L39.7963 80.9996ZM66.0004 80.9996V81.4996L66.0041 81.4996L66.0004 80.9996ZM66.0187 80.9994V80.4994L66.0149 80.4995L66.0187 80.9994ZM72.2502 80.9994V81.4994H72.2503L72.2502 80.9994ZM73.1342 80.6333L72.7806 80.2798L72.7806 80.2798L73.1342 80.6333ZM73.5002 47.2723H74.0002V47.2706L73.5002 47.2723ZM72.2335 43.5111L72.6326 43.21L72.6325 43.2099L72.2335 43.5111ZM68.9639 41.2611V40.7611L68.8252 41.7415L68.9639 41.2611ZM68.9645 41.2611V41.7611L69.1018 40.7804L68.9645 41.2611ZM56.0001 37.5575H55.5001V37.9347L55.8627 38.0383L56.0001 37.5575ZM56.0001 35.3523L55.833 34.881L55.5001 34.9991V35.3523H56.0001ZM60.2011 32.701L60.5546 33.0546L60.5547 33.0545L60.2011 32.701ZM62.8786 28.4253L62.7861 27.9339L62.5011 27.9875L62.4062 28.2615L62.8786 28.4253ZM64.5629 27.7501L64.8356 28.1692L64.8358 28.1691L64.5629 27.7501ZM66.1862 25.9398L65.7643 25.6715L65.7511 25.6922L65.74 25.7141L66.1862 25.9398ZM67.2498 22.2501H66.7498L66.7499 22.2526L67.2498 22.2501ZM71.0002 65.9998H71.5002V65.4998H71.0002V65.9998ZM67.2504 65.9998V65.4998H66.7504V65.9998H67.2504ZM71.0002 78.4994V78.9994H71.5002V78.4994H71.0002ZM67.2504 78.4994H66.7504V78.9994H67.2504V78.4994ZM51.0001 35.9286L51.0561 35.4317L50.5001 35.369V35.9286H51.0001ZM51.0001 38.2802H50.5001V38.6307L50.8295 38.7503L51.0001 38.2802ZM52.2497 35.9995L52.6127 36.3434L53.4109 35.5008L52.2503 35.4995L52.2497 35.9995ZM52.2496 35.9996L51.8867 35.6557L51.0859 36.5009L52.2502 36.4996L52.2496 35.9996ZM53.5001 35.9285H54.0001V35.3689L53.444 35.4317L53.5001 35.9285ZM53.5001 38.2802L53.6706 38.7503L54.0001 38.6307V38.2802H53.5001ZM64.7503 18.7147L64.5836 19.1861L65.2503 19.4219V18.7147H64.7503ZM58.5003 5.17464L58.2504 5.60767L58.5003 5.17464ZM46.0003 5.17464L46.2503 5.60767L46.0003 5.17464ZM39.7503 18.7146H39.2503V19.4217L39.917 19.186L39.7503 18.7146ZM40.9997 18.5001L40.9998 19.0001L41.4997 19V18.5001H40.9997ZM41.3658 16.3656L41.7193 16.7191L41.7193 16.7191L41.3658 16.3656ZM46.3658 11.3656L46.0124 11.0118L46.0122 11.012L46.3658 11.3656ZM48.1336 11.3656L47.7803 11.7193L47.7847 11.7237L48.1336 11.3656ZM63.1336 16.3656L63.4871 16.0121H63.4871L63.1336 16.3656ZM63.4996 18.5001H62.9996V19.0001H63.4996V18.5001ZM39.7503 22.2501L40.2503 22.2538V22.2501H39.7503ZM39.7503 22.2499L39.2503 22.2499V22.2499H39.7503ZM40.4177 24.59L39.995 24.857L39.9967 24.8596L40.4177 24.59ZM41.017 25.3615L40.6586 25.7101L41.5903 26.6681L41.5163 25.3338L41.017 25.3615ZM40.9997 24.7495H40.4997V24.7501L40.9997 24.7495ZM40.9997 21.0001H41.4997V20.4999L40.9995 20.5001L40.9997 21.0001ZM63.4996 21.0001V20.5001H62.9996V21.0001H63.4996ZM63.4996 24.7496L63.9996 24.7501V24.7496H63.4996ZM64.7499 22.2501H64.2499L64.2499 22.2538L64.7499 22.2501ZM64.0825 24.59L64.5036 24.8596L64.5052 24.857L64.0825 24.59ZM63.4823 25.3625L62.983 25.3347L62.9089 26.6683L63.8406 25.7113L63.4823 25.3625ZM43.4997 17.7666L43.1462 17.413L42.9997 17.5595V17.7666H43.4997ZM47.8747 32.3269L48.1247 31.8939L47.8747 32.3269ZM56.6247 32.3269L56.3747 31.8939L56.6247 32.3269ZM60.9997 18.4731H61.4997V17.9803L61.007 17.9731L60.9997 18.4731ZM47.3223 13.9458L47.6148 13.5402L47.2697 13.2914L46.9688 13.5921L47.3223 13.9458ZM8.55391 61.0007L9.04906 60.9312L8.98863 60.5007H8.55391V61.0007ZM6.00109 61.0007V60.5007H5.50109V61.0007H6.00109ZM10.7418 65.009L10.4154 65.3878L10.4224 65.3939L10.4296 65.3996L10.7418 65.009ZM12.2506 68.5002L11.7522 68.46L11.75 68.487L11.7508 68.5141L12.2506 68.5002ZM11.1318 72.9416L10.6982 72.6925L10.6951 72.6981L11.1318 72.9416ZM9.75061 78.5002H10.2507L10.2505 78.4893L9.75061 78.5002ZM9.75061 78.5004V79.0004H10.2506V78.5004H9.75061ZM6.00109 78.5004H5.50109V79.0004H6.00109V78.5004ZM34.743 24.962L34.5774 25.4338L35.2655 25.6753L35.2427 24.9464L34.743 24.962ZM9.75955 24.9619L9.25979 24.9463L9.23704 25.6752L9.92512 25.4337L9.75955 24.9619ZM11.0007 24.7503L11.0007 25.2503L11.5007 25.2502V24.7503H11.0007ZM11.3667 22.6166L11.7203 22.9701L11.7203 22.9701L11.3667 22.6166ZM16.3667 17.6166L16.0134 17.2628L16.0132 17.263L16.3667 17.6166ZM18.1346 17.6166L17.7812 17.9703L17.7856 17.9747L18.1346 17.6166ZM33.1345 22.6166L33.4881 22.2631L33.4881 22.2631L33.1345 22.6166ZM33.5006 24.7503H33.0006V25.2503H33.5006V24.7503ZM9.75127 28.5029L9.25127 28.4993V28.5029H9.75127ZM9.75127 28.5619H9.25126L9.25128 28.5653L9.75127 28.5619ZM9.75129 28.5003L10.2513 28.5039V28.5003H9.75129ZM11.0007 27.2503H11.5007V26.7501L11.0004 26.7503L11.0007 27.2503ZM11.0007 31.0005H10.5007V31.0011L11.0007 31.0005ZM11.0179 31.6117L10.6595 31.9603L11.5912 32.9181L11.5172 31.584L11.0179 31.6117ZM10.4187 30.8402L9.99594 31.1072L9.99764 31.1098L10.4187 30.8402ZM21.001 44.5304H20.501V44.8508L20.7921 44.9847L21.001 44.5304ZM21.001 42.1796L21.057 41.6827L20.501 41.62V42.1796H21.001ZM22.251 44.7503L22.2925 44.252L22.251 44.2486L22.2095 44.252L22.251 44.7503ZM23.501 44.5304L23.71 44.9847L24.001 44.8508V44.5304H23.501ZM23.501 42.1795H24.001V41.6199L23.4449 41.6827L23.501 42.1795ZM22.2506 42.2506L21.897 41.897L21.0421 42.752L22.2512 42.7506L22.2506 42.2506ZM22.2507 42.2505L22.6042 42.604L23.4564 41.7518L22.2512 41.7505L22.2507 42.2505ZM33.5006 27.2503V26.7503H33.0006V27.2503H33.5006ZM33.5006 31.0006L34.0006 31.0011V31.0006H33.5006ZM34.7509 28.5003H34.2509L34.2509 28.504L34.7509 28.5003ZM34.0835 30.8402L34.5045 31.1098L34.5062 31.1072L34.0835 30.8402ZM33.4833 31.6127L32.984 31.5849L32.91 32.9184L33.8416 31.9614L33.4833 31.6127ZM13.5007 24.0176L13.1472 23.664L13.0007 23.8105V24.0176H13.5007ZM17.8757 38.5779L18.1257 38.1449L17.8757 38.5779ZM31.0007 24.7241H31.5007V24.2313L31.0079 24.2241L31.0007 24.7241ZM17.3232 20.1968L17.6157 19.7912L17.2706 19.5424L16.9698 19.8431L17.3232 20.1968ZM12.2511 43.4999V43.9999H12.7511V43.4999H12.2511ZM7.61715 50.6338L7.2636 50.9873L7.2636 50.9873L7.61715 50.6338ZM11.6362 50.1449L12.1105 50.3031L12.1106 50.3027L11.6362 50.1449ZM12.3148 48.1048L11.8405 47.9465L11.8403 47.947L12.3148 48.1048ZM13.2138 47.2834L13.3283 47.7701L13.3291 47.7699L13.2138 47.2834ZM14.3851 47.616L14.0315 47.9695L14.0315 47.9695L14.3851 47.616ZM15.1178 48.3487V48.8487H16.3249L15.4713 47.9951L15.1178 48.3487ZM15.1172 48.3487V47.8487H13.7543L14.7939 48.73L15.1172 48.3487ZM15.6713 48.4357L15.8623 48.8978L15.8635 48.8973L15.6713 48.4357ZM16.0011 47.9826L16.4995 48.0227L16.5011 48.0027V47.9826H16.0011ZM16.0011 47.2499L15.5019 47.2231L15.5011 47.2365V47.2499H16.0011ZM14.9621 44.5389L15.3156 44.1853L15.3156 44.1853L14.9621 44.5389ZM12.2511 43.4998L12.2243 43.0005L11.7511 43.0259V43.4998H12.2511ZM67.2503 21.7499H67.2498V22.7499H67.2503V21.7499ZM66.7503 15.9999V22.2499H67.7503V15.9999H66.7503ZM59.5003 3.44236C63.9868 6.03276 66.7503 10.8197 66.7503 15.9999H67.7503C67.7503 10.4624 64.7962 5.34538 60.0003 2.57635L59.5003 3.44236ZM45.0003 3.44239C49.4868 0.852538 55.0139 0.852538 59.5004 3.44239L60.0003 2.57633C55.2045 -0.192109 49.2962 -0.192109 44.5004 2.57633L45.0003 3.44239ZM37.7503 15.9999C37.7503 10.8197 40.5139 6.03276 45.0003 3.44236L44.5003 2.57635C39.7045 5.34538 36.7503 10.4624 36.7503 15.9999H37.7503ZM37.7503 22.2499V15.9999H36.7503V22.2499H37.7503ZM37.2504 21.7499H37.2503V22.7499H37.2504V21.7499ZM37.7504 22.2501V22.2499H36.7504V22.2501H37.7504ZM38.7359 25.6715C38.0865 24.6503 37.7442 23.463 37.7504 22.2526L36.7504 22.2475C36.7432 23.6497 37.1398 25.025 37.8921 26.2081L38.7359 25.6715ZM40.2101 27.331C39.593 26.9293 39.0926 26.3715 38.7602 25.7142L37.8678 26.1654C38.2798 26.9802 38.8999 27.6713 39.6645 28.1691L40.2101 27.331ZM41.7133 27.9338C41.1793 27.8332 40.6683 27.6291 40.21 27.331L39.6646 28.1692C40.233 28.539 40.8665 28.7918 41.5282 28.9165L41.7133 27.9338ZM44.6519 32.3474C43.4901 31.1853 42.6213 29.7851 42.0932 28.2614L41.1483 28.5889C41.7255 30.2541 42.675 31.7844 43.9447 33.0544L44.6519 32.3474ZM48.6671 34.8813C47.1707 34.3509 45.7958 33.4911 44.6518 32.3473L43.9448 33.0545C45.195 34.3045 46.6977 35.2442 48.333 35.8238L48.6671 34.8813ZM49.0001 37.2493V35.3525H48.0001V37.2493H49.0001ZM39.7503 37.7493H48.5001V36.7493H39.7503V37.7493ZM40.2503 39.7493V37.2493H39.2503V39.7493H40.2503ZM48.9549 39.2493H39.7503V40.2493H48.9549V39.2493ZM52.2501 40.5001C50.4766 40.5001 49.7056 39.9219 49.3565 39.4514L48.5534 40.0473C49.1326 40.8279 50.2367 41.5001 52.2501 41.5001V40.5001ZM54.9933 39.6301C54.5953 40.0492 53.8145 40.5001 52.2501 40.5001V41.5001C54.0161 41.5001 55.0869 40.9838 55.7184 40.3187L54.9933 39.6301ZM68.4165 43.1855L55.4932 39.4937L55.2185 40.4552L68.1419 44.147L68.4165 43.1855ZM70.6393 44.715C70.0837 43.9786 69.3044 43.4419 68.418 43.1859L68.1405 44.1466C68.8189 44.3426 69.4156 44.7535 69.8411 45.3173L70.6393 44.715ZM71.5002 47.2706C71.4971 46.3483 71.1949 45.4514 70.6393 44.715L69.8411 45.3173C70.2665 45.8812 70.4978 46.568 70.5002 47.274L71.5002 47.2706ZM71.5002 63.4998V47.2723H70.5002V63.4998H71.5002ZM67.2504 63.9998H71.0002V62.9998H67.2504V63.9998ZM66.7504 57.2496V63.4998H67.7504V57.2496H66.7504ZM67.2503 57.7496H67.2504V56.7496H67.2503V57.7496ZM66.7503 57.2494V57.2496H67.7503V57.2494H66.7503ZM64.7502 57.7494H67.2503V56.7494H64.7502V57.7494ZM65.2502 78.4996V57.2494H64.2502V78.4996H65.2502ZM41.0011 78.9996H64.7502V77.9996H41.0011V78.9996ZM40.5011 63.5004V78.4996H41.5011V63.5004H40.5011ZM38.5011 64.0004H41.0011V63.0004H38.5011V64.0004ZM39.0011 78.4996V63.5004H38.0011V78.4996H39.0011ZM38.5004 78.9996H38.5011V77.9996H38.5004V78.9996ZM39.0004 78.5004V78.4996H38.0004V78.5004H39.0004ZM34.751 79.0004H38.5004V78.0004H34.751V79.0004ZM32.9332 73.1856C33.8363 74.8049 34.2915 76.6356 34.2511 78.4895L35.2509 78.5113C35.2952 76.4794 34.7962 74.473 33.8065 72.6985L32.9332 73.1856ZM31.7512 68.4866C31.7051 70.1341 32.1153 71.762 32.9363 73.1911L33.8034 72.693C33.0742 71.4236 32.7099 69.9777 32.7508 68.5146L31.7512 68.4866ZM33.4478 64.6188C32.2659 65.5631 31.631 67.0332 31.7526 68.5408L32.7494 68.4604C32.6544 67.2837 33.15 66.1367 34.0719 65.4001L33.4478 64.6188ZM35.4527 60.9313C35.2529 62.3557 34.543 63.6751 33.4336 64.6306L34.0862 65.3883C35.3811 64.273 36.2098 62.7329 36.443 61.0702L35.4527 60.9313ZM42.251 60.5007H35.9478V61.5007H42.251V60.5007ZM42.6045 61.3543L42.6045 61.3543L41.8974 60.6472L41.8974 60.6472L42.6045 61.3543ZM42.843 60.2109C42.7004 60.3941 42.482 60.5008 42.2509 60.5008V61.5008C42.791 61.5008 43.3003 61.2514 43.6321 60.8252L42.843 60.2109ZM42.9778 59.5662C43.0347 59.7906 42.9847 60.0287 42.8429 60.211L43.6322 60.8251C43.9635 60.3992 44.0798 59.8437 43.947 59.3203L42.9778 59.5662ZM43.4618 59.9433H43.4624V58.9433H43.4618V59.9433ZM41.143 52.2269L42.9768 59.5645L43.9469 59.3221L42.1132 51.9845L41.143 52.2269ZM37.3843 48.1669C39.2512 48.7837 40.6707 50.3165 41.1427 52.2257L42.1135 51.9857C41.559 49.7429 39.8913 47.9421 37.698 47.2174L37.3843 48.1669ZM25.8429 44.3206L37.383 48.1665L37.6992 47.2178L26.1591 43.3719L25.8429 44.3206ZM25.501 41.6033V43.8463H26.501V41.6033H25.501ZM29.8485 38.5984C28.7046 39.742 27.33 40.6017 25.8339 41.132L26.1681 42.0745C27.803 41.4949 29.3054 40.5554 30.5555 39.3056L29.8485 38.5984ZM32.4074 34.5117C31.8793 36.0358 31.0104 37.4363 29.8484 38.5985L30.5556 39.3055C31.8255 38.0353 32.7751 36.5047 33.3523 34.8391L32.4074 34.5117ZM34.2912 33.5811C33.8327 33.8794 33.3215 34.0835 32.7873 34.1841L32.9723 35.1668C33.6342 35.0422 34.2679 34.7893 34.8365 34.4194L34.2912 33.5811ZM34.4585 33.4664C34.4037 33.506 34.3479 33.5443 34.2911 33.5812L34.8367 34.4193C34.9071 34.3734 34.9762 34.326 35.0441 34.277L34.4585 33.4664ZM35.2513 44.7504V33.8717H34.2513V44.7504H35.2513ZM37.2513 44.2504H34.7513V45.2504H37.2513V44.2504ZM36.7513 25.4932V44.7504H37.7513V25.4932H36.7513ZM22.2513 9.00035C30.1894 9.00035 36.7513 16.341 36.7513 25.4932H37.7513C37.7513 15.9097 30.8554 8.00035 22.2513 8.00035V9.00035ZM7.75127 25.4932C7.75127 16.3412 14.3131 9.00035 22.2513 9.00035V8.00035C13.6472 8.00035 6.75127 15.9098 6.75127 25.4932H7.75127ZM7.75127 28.5352V25.4932H6.75127V28.5352H7.75127ZM7.75127 42.9908V28.5352H6.75127V42.9908H7.75127ZM5.25115 49.7499C5.25115 47.9359 5.84279 45.1539 7.60949 43.3396L6.89305 42.642C4.8757 44.7137 4.25115 47.7942 4.25115 49.7499H5.25115ZM6.20295 52.0481C5.59371 51.4388 5.25115 50.6116 5.25115 49.7499H4.25115C4.25115 50.8768 4.69903 51.9583 5.49578 52.7552L6.20295 52.0481ZM8.50108 52.9999C7.6392 52.9999 6.81211 52.6574 6.20295 52.0481L5.49578 52.7552C6.29262 53.5521 7.37414 53.9999 8.50108 53.9999V52.9999ZM10.4498 52.9999H8.50108V53.9999H10.4498V52.9999ZM10.7125 53.9253L10.7126 53.9252L10.187 53.0745L10.1869 53.0746L10.7125 53.9253ZM12.35 52.3866C11.7967 52.7852 11.1316 52.9999 10.4497 52.9999V53.9999C11.3415 53.9999 12.211 53.7191 12.9345 53.1981L12.35 52.3866ZM13.5329 50.7782C13.3172 51.4252 12.9033 51.9877 12.3498 52.3868L12.9347 53.1979C13.658 52.6763 14.1994 51.9408 14.4815 51.0945L13.5329 50.7782ZM13.6243 50.5034L13.5328 50.7785L14.4816 51.0942L14.5732 50.819L13.6243 50.5034ZM16.7943 50.1341C16.0435 50.5908 15.1087 50.6224 14.3292 50.2175L13.8683 51.1049C14.9581 51.671 16.2646 51.6267 17.314 50.9885L16.7943 50.1341ZM18.0012 47.9834C18.0025 48.8614 17.5447 49.6771 16.794 50.1343L17.3143 50.9883C18.3628 50.3496 19.0031 49.2099 19.0012 47.9818L18.0012 47.9834ZM18.0012 47.2499V47.9826H19.0012V47.2499H18.0012ZM16.3869 43.114C17.4745 44.202 18.0599 45.6937 18.0015 47.2309L19.0008 47.2689C19.0698 45.4533 18.3783 43.6917 17.0942 42.407L16.3869 43.114ZM12.2701 41.4996C13.8072 41.4412 15.299 42.0266 16.3871 43.1141L17.094 42.4068C15.8093 41.1228 14.0477 40.4314 12.2322 40.5003L12.2701 41.4996ZM9.91495 41.8691C10.5899 41.6353 11.3639 41.4999 12.2512 41.4999V40.4999C11.2606 40.4999 10.3753 40.6513 9.58759 40.9242L9.91495 41.8691ZM9.25127 33.872V41.3967H10.2513V33.872H9.25127ZM10.2111 33.5812C10.1544 33.5443 10.0987 33.5061 10.044 33.4666L9.4585 34.2773C9.52624 34.3262 9.59524 34.3736 9.66544 34.4193L10.2111 33.5812ZM11.714 34.1839C11.1801 34.0833 10.6692 33.8793 10.2109 33.5812L9.66558 34.4194C10.2339 34.7891 10.8672 35.042 11.5288 35.1666L11.714 34.1839ZM14.6528 38.5984C13.4908 37.4361 12.622 36.0356 12.0939 34.5116L11.149 34.839C11.7261 36.5045 12.6757 38.0352 13.9456 39.3054L14.6528 38.5984ZM18.668 41.1323C17.1717 40.6019 15.7968 39.7421 14.6527 38.5983L13.9457 39.3055C15.196 40.5555 16.6987 41.4952 18.334 42.0748L18.668 41.1323ZM19.001 44.7503V41.6035H18.001V44.7503H19.001ZM22.251 46.7503C20.5136 46.7503 19.7391 46.1952 19.381 45.7327C19.1937 45.4909 19.0983 45.2469 19.0496 45.059C19.0008 44.8703 19.001 44.7449 19.001 44.7503H18.001C18.001 44.8529 18.0193 45.6075 18.5903 46.345C19.1803 47.1068 20.2808 47.7503 22.251 47.7503V46.7503ZM24.9677 45.9077C24.563 46.3179 23.7829 46.7503 22.251 46.7503V47.7503C23.9791 47.7503 25.0421 47.2561 25.6795 46.6101L24.9677 45.9077ZM36.9091 49.5939L25.4817 45.7846L25.1655 46.7333L36.5928 50.5426L36.9091 49.5939ZM39.6888 52.5953C39.339 51.1837 38.2893 50.0497 36.9077 49.5935L36.5942 50.5431C37.649 50.8914 38.4509 51.7574 38.7182 52.8359L39.6888 52.5953ZM41.135 58.3794L39.6886 52.5943L38.7185 52.8368L40.1649 58.622L41.135 58.3794ZM35.8435 59.0007H40.65V58.0007H35.8435V59.0007ZM33.1923 54.7525C34.2982 55.7901 35.0481 57.1372 35.3541 58.6029L36.333 58.3985C35.9853 56.733 35.1332 55.2022 33.8765 54.0233L33.1923 54.7525ZM32.778 54.2686L33.153 54.7111L33.9159 54.0646L33.5409 53.6221L32.778 54.2686ZM31.5693 55.9403L33.4818 54.3276L32.8371 53.5631L30.9247 55.1758L31.5693 55.9403ZM32.0304 55.6999L31.6253 55.2311L30.8687 55.885L31.2738 56.3538L32.0304 55.6999ZM33.9993 59.7115C33.8771 58.1492 33.1552 56.695 31.9845 55.6533L31.3197 56.4003C32.2974 57.2703 32.9003 58.4847 33.0024 59.7895L33.9993 59.7115ZM32.3041 63.6323C33.4859 62.6881 34.1209 61.218 33.9992 59.7103L33.0025 59.7908C33.0974 60.9674 32.6018 62.1145 31.6799 62.851L32.3041 63.6323ZM30.2501 68.4734C30.1497 66.6228 30.9139 64.8301 32.3183 63.6205L31.6657 62.8628C30.0264 64.2747 29.1343 66.3672 29.2516 68.5276L30.2501 68.4734ZM31.5687 73.8156C30.6655 72.1962 30.2103 70.3654 30.2507 68.5115L29.251 68.4896C29.2066 70.5216 29.7056 72.528 30.6953 74.3027L31.5687 73.8156ZM32.7506 78.5144C32.7967 76.867 32.3865 75.2392 31.5655 73.8101L30.6984 74.3082C31.4276 75.5776 31.792 77.0233 31.751 78.4864L32.7506 78.5144ZM12.2506 79.0004H32.2508V78.0004H12.2506V79.0004ZM11.7506 78.5001V78.5004H12.7506V78.5001H11.7506ZM12.9424 73.809C12.119 75.2377 11.7071 76.8655 11.7508 78.5134L12.7505 78.4868C12.7116 77.023 13.0776 75.5772 13.8088 74.3083L12.9424 73.809ZM14.2508 68.5114C14.2928 70.3646 13.8402 72.1957 12.9387 73.8155L13.8125 74.3018C14.8006 72.5265 15.2966 70.5196 15.2505 68.4888L14.2508 68.5114ZM12.1832 63.6201C13.5875 64.8298 14.3517 66.6223 14.2514 68.473L15.2499 68.5272C15.367 66.3667 14.4749 64.2744 12.8358 62.8624L12.1832 63.6201ZM10.5023 59.7099C10.3806 61.2175 11.0156 62.6876 12.1974 63.6319L12.8216 62.8506C11.8997 62.114 11.4041 60.9669 11.499 59.7903L10.5023 59.7099ZM12.5115 55.6533C11.3431 56.6957 10.6231 58.1504 10.5021 59.7115L11.4991 59.7887C11.6002 58.4849 12.2016 57.27 13.1772 56.3995L12.5115 55.6533ZM12.8724 55.2295L12.4661 55.6994L13.2226 56.3534L13.6288 55.8835L12.8724 55.2295ZM11.0159 54.326L12.9283 55.9387L13.5729 55.1743L11.6605 53.5616L11.0159 54.326ZM11.345 54.7102L11.72 54.2666L10.9563 53.621L10.5813 54.0647L11.345 54.7102ZM9.14681 58.6026C9.45193 57.1371 10.2009 55.7898 11.3056 54.7518L10.6208 54.0231C9.36564 55.2025 8.51453 56.7334 8.16781 58.3987L9.14681 58.6026ZM3.8519 59.0007H8.65731V58.0007H3.8519V59.0007ZM4.81209 52.5943L3.36681 58.3795L4.33699 58.6219L5.78228 52.8367L4.81209 52.5943ZM4.85242 52.447L4.81503 52.5831L5.77934 52.8479L5.81672 52.7118L4.85242 52.447ZM2.79069 52.4044L5.20312 53.0618L5.46603 52.097L3.0536 51.4396L2.79069 52.4044ZM1.52318 59.5697L3.40718 52.0434L2.43711 51.8006L0.55311 59.3269L1.52318 59.5697ZM1.6602 60.2129C1.51775 60.0301 1.46745 59.7929 1.52326 59.5694L0.553029 59.3272C0.422464 59.8503 0.540711 60.4033 0.871463 60.8276L1.6602 60.2129ZM2.25076 60.5007C2.02051 60.5007 1.80225 60.3944 1.65957 60.2121L0.872086 60.8284C1.20372 61.2522 1.71204 61.5007 2.25076 61.5007V60.5007ZM3.50109 60.5007H2.25076V61.5007H3.50109V60.5007ZM4.00109 79.7504V61.0007H3.00109V79.7504H4.00109ZM4.75109 80.5004C4.33695 80.5004 4.00109 80.1645 4.00109 79.7504H3.00109C3.00109 80.7168 3.78467 81.5004 4.75109 81.5004V80.5004ZM39.7511 80.5004H4.75109V81.5004H39.7511V80.5004ZM39.7783 80.4999C39.7692 80.5002 39.7601 80.5004 39.7511 80.5004V81.5004C39.7723 81.5004 39.7933 81.5 39.8143 81.4993L39.7783 80.4999ZM66.0004 80.4996H39.7963V81.4996H66.0004V80.4996ZM66.0149 80.4995L65.9966 80.4996L66.0041 81.4996L66.0224 81.4994L66.0149 80.4995ZM72.2502 80.4994H66.0187V81.4994H72.2502V80.4994ZM72.7806 80.2798C72.64 80.4204 72.4491 80.4994 72.2502 80.4994L72.2503 81.4994C72.7143 81.4994 73.1595 81.3151 73.4877 80.9869L72.7806 80.2798ZM73.0002 79.7494C73.0002 79.9483 72.9212 80.1392 72.7806 80.2798L73.4877 80.9869C73.8159 80.6587 74.0002 80.2134 74.0002 79.7494H73.0002ZM73.0002 47.2723V79.7494H74.0002V47.2723H73.0002ZM71.8343 43.8123C72.5868 44.8097 72.9961 46.0244 73.0002 47.2739L74.0002 47.2706C73.9954 45.8047 73.5152 44.3799 72.6326 43.21L71.8343 43.8123ZM68.8252 41.7415C70.0259 42.0882 71.0813 42.8149 71.8344 43.8124L72.6325 43.2099C71.7493 42.04 70.5113 41.1875 69.1026 40.7808L68.8252 41.7415ZM68.9645 40.7611H68.9639V41.7611H68.9645V40.7611ZM55.8627 38.0383L68.8271 41.7419L69.1018 40.7804L56.1374 37.0768L55.8627 38.0383ZM55.5001 35.3523V37.5575H56.5001V35.3523H55.5001ZM59.8476 32.3474C58.7036 33.491 57.329 34.3507 55.833 34.881L56.1671 35.8236C57.8021 35.244 59.3044 34.3044 60.5546 33.0546L59.8476 32.3474ZM62.4062 28.2615C61.878 29.7853 61.0092 31.1855 59.8475 32.3475L60.5547 33.0545C61.8243 31.7846 62.7738 30.2542 63.351 28.589L62.4062 28.2615ZM64.2903 27.3309C63.8317 27.6293 63.3204 27.8334 62.7861 27.9339L62.9711 28.9167C63.6331 28.7921 64.2669 28.5391 64.8356 28.1692L64.2903 27.3309ZM65.74 25.7141C65.4076 26.3715 64.9072 26.9293 64.2901 27.331L64.8358 28.1691C65.6003 27.6713 66.2204 26.9801 66.6324 26.1654L65.74 25.7141ZM66.7499 22.2526C66.7561 23.463 66.4137 24.6502 65.7643 25.6715L66.6081 26.2081C67.3605 25.025 67.757 23.6498 67.7498 22.2475L66.7499 22.2526ZM66.7498 22.2499V22.2501H67.7498V22.2499H66.7498ZM71.0002 65.4998H67.2504V66.4998H71.0002V65.4998ZM71.5002 78.4994V65.9998H70.5002V78.4994H71.5002ZM67.2504 78.9994H71.0002V77.9994H67.2504V78.9994ZM66.7504 65.9998V78.4994H67.7504V65.9998H66.7504ZM50.5001 35.9286V38.2802H51.5001V35.9286H50.5001ZM52.2503 35.4995C51.8493 35.4991 51.4507 35.4762 51.0561 35.4317L50.944 36.4254C51.3753 36.4741 51.811 36.499 52.2491 36.4995L52.2503 35.4995ZM52.6126 36.3434L52.6127 36.3434L51.8867 35.6556L51.8867 35.6557L52.6126 36.3434ZM53.444 35.4317C53.0491 35.4763 52.6503 35.4991 52.2491 35.4996L52.2502 36.4996C52.6887 36.4991 53.1246 36.4741 53.5561 36.4254L53.444 35.4317ZM54.0001 38.2802V35.9285H53.0001V38.2802H54.0001ZM50.8295 38.7503C51.7472 39.0832 52.753 39.0832 53.6706 38.7503L53.3295 37.8102C52.6323 38.0632 51.8679 38.0632 51.1706 37.8102L50.8295 38.7503ZM64.2503 15.9999V18.7147H65.2503V15.9999H64.2503ZM58.2504 5.60767C61.9633 7.75106 64.2503 11.7125 64.2503 15.9999H65.2503C65.2503 11.3553 62.7728 7.06366 58.7503 4.74162L58.2504 5.60767ZM46.2503 5.60767C49.9633 3.46425 54.5373 3.46425 58.2504 5.60767L58.7503 4.74162C54.7279 2.4196 49.7728 2.4196 45.7504 4.74162L46.2503 5.60767ZM40.2503 15.9999C40.2503 11.7127 42.5373 7.75106 46.2503 5.60767L45.7504 4.74162C41.7279 7.06366 39.2503 11.3555 39.2503 15.9999H40.2503ZM40.2503 18.7146V15.9999H39.2503V18.7146H40.2503ZM40.9996 18.0001C40.5127 18.0002 40.0343 18.0839 39.5837 18.2432L39.917 19.186C40.2617 19.0642 40.6275 19.0002 40.9998 19.0001L40.9996 18.0001ZM40.4997 17.2495V18.5001H41.4997V17.2495H40.4997ZM41.0122 16.012C40.684 16.3402 40.4997 16.7855 40.4997 17.2495H41.4997C41.4997 17.0506 41.5788 16.8597 41.7193 16.7191L41.0122 16.012ZM46.0122 11.012L41.0122 16.012L41.7193 16.7191L46.7193 11.7191L46.0122 11.012ZM48.487 11.0118C47.8035 10.3291 46.6959 10.3291 46.0124 11.0118L46.7191 11.7193C47.0122 11.4266 47.4872 11.4266 47.7803 11.7193L48.487 11.0118ZM62.2496 15.4996C53.1215 15.4996 48.4708 10.996 48.4826 11.0074L47.7847 11.7237C47.8835 11.82 52.7709 16.4996 62.2496 16.4996V15.4996ZM63.4871 16.0121C63.1589 15.6839 62.7137 15.4996 62.2496 15.4996V16.4996C62.4486 16.4996 62.6395 16.5786 62.78 16.7192L63.4871 16.0121ZM63.9996 17.2496C63.9996 16.7856 63.8153 16.3403 63.4871 16.0121L62.78 16.7192C62.9206 16.8598 62.9996 17.0506 62.9996 17.2496H63.9996ZM63.9996 18.5001V17.2496H62.9996V18.5001H63.9996ZM63.4999 18.0001H63.4996V19.0001H63.4999V18.0001ZM64.917 18.2433C64.4661 18.0839 63.9872 18.0001 63.4999 18.0001V19.0001C63.8726 19.0001 64.2387 19.0641 64.5836 19.1861L64.917 18.2433ZM40.2503 22.2501V22.2499H39.2503V22.2501H40.2503ZM40.8405 24.323C40.4497 23.7042 40.2449 22.9857 40.2503 22.2538L39.2504 22.2464C39.2435 23.1697 39.5018 24.0761 39.995 24.857L40.8405 24.323ZM41.3755 25.0129C41.1737 24.8055 40.9917 24.5591 40.8388 24.3203L39.9967 24.8596C40.1723 25.1339 40.3951 25.4393 40.6586 25.7101L41.3755 25.0129ZM40.4997 24.7501C40.5 24.9638 40.506 25.1769 40.5178 25.3892L41.5163 25.3338C41.5055 25.1395 41.4999 24.9445 41.4997 24.7489L40.4997 24.7501ZM40.4997 21.0001V24.7495H41.4997V21.0001H40.4997ZM40.2503 22.25C40.2504 21.836 40.586 21.5003 41 21.5001L40.9995 20.5001C40.0335 20.5006 39.2505 21.2838 39.2503 22.2499L40.2503 22.25ZM62.9996 21.0001V24.7496H63.9996V21.0001H62.9996ZM63.4999 20.5001H63.4996V21.5001H63.4999V20.5001ZM64.7374 21.0126C64.4092 20.6845 63.9639 20.5001 63.4999 20.5001V21.5001C63.6988 21.5001 63.8897 21.5792 64.0303 21.7197L64.7374 21.0126ZM65.2499 22.2501C65.2499 21.7861 65.0656 21.3408 64.7374 21.0126L64.0303 21.7197C64.1709 21.8603 64.2499 22.0512 64.2499 22.2501H65.2499ZM64.5052 24.857C64.9984 24.0761 65.2567 23.1697 65.2499 22.2464L64.2499 22.2538C64.2553 22.9857 64.0505 23.7043 63.6598 24.323L64.5052 24.857ZM63.8406 25.7113C64.1045 25.4401 64.3277 25.1343 64.5036 24.8596L63.6614 24.3204C63.5084 24.5594 63.326 24.8062 63.124 25.0137L63.8406 25.7113ZM62.9996 24.749C62.9994 24.9449 62.9939 25.1402 62.983 25.3347L63.9815 25.3903C63.9933 25.1776 63.9994 24.9642 63.9996 24.7501L62.9996 24.749ZM43.9997 24.7494V17.7666H42.9997V24.7494H43.9997ZM48.1247 31.8939C45.5724 30.4202 43.9997 27.6968 43.9997 24.7494H42.9997C42.9997 28.0542 44.763 31.1076 47.6247 32.7599L48.1247 31.8939ZM56.3747 31.8939C53.8224 33.3676 50.677 33.3676 48.1247 31.8939L47.6247 32.7599C50.4864 34.4123 54.013 34.4123 56.8747 32.7599L56.3747 31.8939ZM60.4997 24.7494C60.4997 27.6968 58.927 30.4202 56.3747 31.8939L56.8747 32.7599C59.7364 31.1076 61.4997 28.0542 61.4997 24.7494H60.4997ZM60.4997 18.4731V24.7494H61.4997V18.4731H60.4997ZM47.0298 14.3513C51.1001 17.2869 55.9742 18.9001 60.9924 18.973L61.007 17.9731C56.1937 17.9032 51.5187 16.3558 47.6148 13.5402L47.0298 14.3513ZM43.8532 18.1203L47.6758 14.2994L46.9688 13.5921L43.1462 17.413L43.8532 18.1203ZM8.55391 60.5007H6.00109V61.5007H8.55391V60.5007ZM11.0681 64.6302C9.95886 63.6747 9.24896 62.3555 9.04906 60.9312L8.05876 61.0702C8.2921 62.7327 9.12069 64.2725 10.4154 65.3878L11.0681 64.6302ZM12.749 68.5404C12.8706 67.0328 12.2356 65.5626 11.0539 64.6184L10.4296 65.3996C11.3515 66.1362 11.8471 67.2834 11.7522 68.46L12.749 68.5404ZM11.5653 73.1906C12.3863 71.7615 12.7965 70.1336 12.7504 68.4862L11.7508 68.5141C11.7918 69.9773 11.4274 71.423 10.6982 72.6925L11.5653 73.1906ZM10.2505 78.4893C10.21 76.6351 10.6653 74.8045 11.5684 73.1851L10.6951 72.6981C9.70537 74.4726 9.20638 76.4789 9.25073 78.5111L10.2505 78.4893ZM10.2506 78.5004V78.5002H9.25061V78.5004H10.2506ZM6.00109 79.0004H9.75061V78.0004H6.00109V79.0004ZM5.50109 61.0007V78.5004H6.50109V61.0007H5.50109ZM22.2513 11.5004C28.6554 11.5004 34.0076 17.4303 34.2432 24.9776L35.2427 24.9464C34.9946 16.9986 29.325 10.5004 22.2513 10.5004V11.5004ZM10.2593 24.9775C10.495 17.4301 15.8471 11.5004 22.2513 11.5004V10.5004C15.1776 10.5004 9.50796 16.9985 9.25979 24.9463L10.2593 24.9775ZM11.0006 24.2503C10.517 24.2504 10.0418 24.333 9.59398 24.4901L9.92512 25.4337C10.2677 25.3135 10.631 25.2504 11.0007 25.2503L11.0006 24.2503ZM10.5007 23.5005V24.7503H11.5007V23.5005H10.5007ZM11.0132 22.263C10.685 22.5912 10.5007 23.0365 10.5007 23.5005H11.5007C11.5007 23.3016 11.5797 23.1107 11.7203 22.9701L11.0132 22.263ZM16.0132 17.263L11.0132 22.263L11.7203 22.9701L16.7203 17.9701L16.0132 17.263ZM18.4879 17.2628C17.8044 16.5801 16.6969 16.5801 16.0134 17.2628L16.7201 17.9703C17.0132 17.6776 17.4882 17.6776 17.7812 17.9703L18.4879 17.2628ZM32.2506 21.7506C23.1225 21.7506 18.4718 17.247 18.4835 17.2585L17.7856 17.9747C17.8845 18.071 22.7719 22.7506 32.2506 22.7506V21.7506ZM33.4881 22.2631C33.1599 21.9349 32.7146 21.7506 32.2506 21.7506V22.7506C32.4495 22.7506 32.6404 22.8296 32.781 22.9702L33.4881 22.2631ZM34.0006 23.5006C34.0006 23.0365 33.8163 22.5913 33.4881 22.2631L32.781 22.9702C32.9215 23.1107 33.0006 23.3016 33.0006 23.5006H34.0006ZM34.0006 24.7503V23.5006H33.0006V24.7503H34.0006ZM33.5009 24.2503H33.5006V25.2503H33.5009V24.2503ZM34.9086 24.4902C34.4604 24.3329 33.9848 24.2503 33.5009 24.2503V25.2503C33.8709 25.2503 34.2346 25.3135 34.5774 25.4338L34.9086 24.4902ZM9.25127 28.5029V28.5619H10.2513V28.5029H9.25127ZM9.2513 28.4968L9.25128 28.4993L10.2513 28.5064L10.2513 28.5039L9.2513 28.4968ZM11.0004 26.7503C10.0344 26.7508 9.25129 27.5342 9.25129 28.5003H10.2513C10.2513 28.0863 10.5869 27.7505 11.0009 27.7503L11.0004 26.7503ZM11.5007 31.0005V27.2503H10.5007V31.0005H11.5007ZM11.5172 31.584C11.5064 31.39 11.5009 31.1952 11.5007 30.9999L10.5007 31.0011C10.5009 31.2145 10.5069 31.4273 10.5187 31.6394L11.5172 31.584ZM9.99764 31.1098C10.1733 31.3841 10.3961 31.6894 10.6595 31.9603L11.3764 31.2631C11.1746 31.0557 10.9926 30.8092 10.8398 30.5705L9.99764 31.1098ZM9.25128 28.5653C9.25742 29.4648 9.51504 30.3456 9.99594 31.1072L10.8415 30.5732C10.4604 29.9697 10.2561 29.2715 10.2513 28.5585L9.25128 28.5653ZM21.501 44.5304V42.1796H20.501V44.5304H21.501ZM22.2095 44.252C21.8669 44.2806 21.5224 44.2199 21.21 44.0762L20.7921 44.9847C21.2609 45.2003 21.7779 45.2915 22.2925 45.2486L22.2095 44.252ZM23.2921 44.0762C22.9796 44.2199 22.6351 44.2806 22.2925 44.252L22.2095 45.2486C22.7241 45.2915 23.2411 45.2003 23.71 44.9847L23.2921 44.0762ZM23.001 42.1795V44.5304H24.001V42.1795H23.001ZM22.2512 42.7506C22.6896 42.75 23.1255 42.7251 23.5571 42.6764L23.4449 41.6827C23.0501 41.7272 22.6512 41.7501 22.25 41.7506L22.2512 42.7506ZM21.8971 41.8969L21.897 41.897L22.6041 42.6041L22.6042 42.604L21.8971 41.8969ZM20.945 42.6764C21.3763 42.7251 21.8119 42.75 22.2501 42.7505L22.2512 41.7505C21.8503 41.75 21.4516 41.7272 21.057 41.6827L20.945 42.6764ZM33.0006 27.2503V31.0006H34.0006V27.2503H33.0006ZM33.5009 26.7503H33.5006V27.7503H33.5009V26.7503ZM34.7383 27.2628C34.4102 26.9347 33.9649 26.7503 33.5009 26.7503V27.7503C33.6998 27.7503 33.8907 27.8294 34.0312 27.97L34.7383 27.2628ZM35.2509 28.5003C35.2509 28.0363 35.0665 27.591 34.7383 27.2628L34.0312 27.97C34.1718 28.1105 34.2509 28.3014 34.2509 28.5003H35.2509ZM34.5062 31.1072C34.9994 30.3263 35.2577 29.4199 35.2509 28.4966L34.2509 28.504C34.2563 29.2359 34.0515 29.9545 33.6607 30.5732L34.5062 31.1072ZM33.8416 31.9614C34.1055 31.6903 34.3287 31.3845 34.5045 31.1098L33.6624 30.5706C33.5093 30.8096 33.327 31.0563 33.125 31.2639L33.8416 31.9614ZM33.0006 31C33.0004 31.1956 32.9948 31.3906 32.984 31.5849L33.9825 31.6404C33.9943 31.428 34.0004 31.2149 34.0006 31.0011L33.0006 31ZM14.0007 31.0003V24.0176H13.0007V31.0003H14.0007ZM18.1257 38.1449C15.5733 36.6712 14.0007 33.9478 14.0007 31.0003H13.0007C13.0007 34.3051 14.764 37.3586 17.6256 39.0109L18.1257 38.1449ZM26.3756 38.1449C23.8234 39.6186 20.678 39.6186 18.1257 38.1449L17.6256 39.0109C20.4874 40.6632 24.014 40.6632 26.8757 39.0109L26.3756 38.1449ZM30.5007 31.0003C30.5007 33.9478 28.928 36.6712 26.3756 38.1449L26.8757 39.0109C29.7373 37.3586 31.5007 34.3051 31.5007 31.0003H30.5007ZM30.5007 24.7241V31.0003H31.5007V24.7241H30.5007ZM17.0308 20.6023C21.1011 23.5379 25.9752 25.1511 30.9934 25.224L31.0079 24.2241C26.1947 24.1542 21.5197 22.6068 17.6157 19.7912L17.0308 20.6023ZM13.8541 24.3713L17.6767 20.5504L16.9698 19.8431L13.1472 23.664L13.8541 24.3713ZM7.75108 49.7499C7.75108 49.6448 7.76549 48.1614 8.35978 46.7219C8.65494 46.007 9.08291 45.3283 9.69908 44.83C10.3071 44.3383 11.1254 43.9999 12.2511 43.9999V42.9999C10.9055 42.9999 9.86311 43.4114 9.07029 44.0525C8.28559 44.687 7.77247 45.524 7.43545 46.3403C6.76538 47.9633 6.75108 49.6049 6.75108 49.7499H7.75108ZM7.97071 50.2802C7.83014 50.1397 7.75108 49.9488 7.75108 49.7499H6.75108C6.75108 50.2139 6.93541 50.6591 7.2636 50.9873L7.97071 50.2802ZM8.50108 50.4999C8.30216 50.4999 8.11127 50.4208 7.9707 50.2802L7.2636 50.9873C7.59179 51.3155 8.03706 51.4999 8.50108 51.4999V50.4999ZM10.4498 50.4999H8.50108V51.4999H10.4498V50.4999ZM11.1618 49.9868C11.0597 50.2932 10.7731 50.4999 10.4498 50.4999V51.4999C11.2035 51.4999 11.8722 51.0179 12.1105 50.3031L11.1618 49.9868ZM11.8403 47.947L11.1617 49.9871L12.1106 50.3027L12.7892 48.2626L11.8403 47.947ZM13.0992 46.7967C12.5082 46.9358 12.0325 47.3712 11.8405 47.9465L12.789 48.2631C12.8716 48.0158 13.0756 47.8296 13.3283 47.7701L13.0992 46.7967ZM14.7386 47.2624C14.3099 46.8336 13.6888 46.6569 13.0984 46.7968L13.3291 47.7699C13.5813 47.7101 13.8476 47.7856 14.0315 47.9695L14.7386 47.2624ZM15.4713 47.9951L14.7386 47.2624L14.0315 47.9695L14.7642 48.7022L15.4713 47.9951ZM15.1172 48.8487H15.1178V47.8487H15.1172V48.8487ZM15.4804 47.9736C15.467 47.9791 15.4518 47.9768 15.4406 47.9673L14.7939 48.73C15.0907 48.9817 15.5029 49.0463 15.8623 48.8978L15.4804 47.9736ZM15.5028 47.9424C15.5017 47.9559 15.4932 47.9683 15.4792 47.9741L15.8635 48.8973C16.2222 48.748 16.4682 48.4111 16.4995 48.0227L15.5028 47.9424ZM15.5011 47.2499V47.9826H16.5011V47.2499H15.5011ZM14.6085 44.8924C15.2236 45.5076 15.5484 46.3549 15.5019 47.2231L16.5004 47.2766C16.5621 46.1248 16.1313 45.0011 15.3156 44.1853L14.6085 44.8924ZM12.2778 43.9991C13.1462 43.9526 13.9934 44.2773 14.6085 44.8924L15.3156 44.1853C14.4999 43.3696 13.3762 42.9388 12.2243 43.0005L12.2778 43.9991ZM12.7511 43.4999V43.4998H11.7511V43.4999H12.7511Z" fill="#121E2C"/>
</svg>
